<svg xmlns="http://www.w3.org/2000/svg" xmlns:xlink="http://www.w3.org/1999/xlink" contentStyleType="text/css" height="566px" preserveAspectRatio="none" style="width:2686px;height:566px;background:#FFFFFF;" version="1.1" viewBox="0 0 2686 566" width="2686px" zoomAndPan="magnify"><defs/><g><text fill="#000000" font-family="sans-serif" font-size="14" font-weight="bold" lengthAdjust="spacing" textLength="379" x="1146.75" y="22.9951">BC IAM - Database Diagram (Complete &amp; Simple)</text><!--class Account--><g id="elem_Account"><rect codeLine="9" fill="#F1F1F1" height="259.8594" id="Account" rx="2.5" ry="2.5" style="stroke:#181818;stroke-width:0.5;" width="406" x="925.5" y="44.2969"/><ellipse cx="1095.75" cy="60.2969" fill="#ADD1B2" rx="11" ry="11" style="stroke:#181818;stroke-width:1.0;"/><path d="M1099.8594,66.2969 L1092.1406,66.2969 L1092.1406,53.9063 L1099.8594,53.9063 L1099.8594,56.0625 L1094.5938,56.0625 L1094.5938,58.7344 L1099.3594,58.7344 L1099.3594,60.8906 L1094.5938,60.8906 L1094.5938,64.1406 L1099.8594,64.1406 L1099.8594,66.2969 Z " fill="#000000"/><text fill="#000000" font-family="sans-serif" font-size="14" lengthAdjust="spacing" textLength="57" x="1116.25" y="65.1436">Account</text><line style="stroke:#181818;stroke-width:0.5;" x1="926.5" x2="1330.5" y1="76.2969" y2="76.2969"/><ellipse cx="936.5" cy="89.9453" fill="#000000" rx="3" ry="3" style="stroke:#000000;stroke-width:1.0;"/><text fill="#000000" font-family="sans-serif" font-size="14" lengthAdjust="spacing" textLength="122" x="945.5" y="93.292">account_id : UUID</text><line style="stroke:#181818;stroke-width:1.0;" x1="926.5" x2="1330.5" y1="100.5938" y2="100.5938"/><text fill="#000000" font-family="sans-serif" font-size="14" lengthAdjust="spacing" textLength="391" x="931.5" y="117.5889">issuer : varchar(100)        ' IdP issuer (normalizado, lower)</text><text fill="#000000" font-family="sans-serif" font-size="14" lengthAdjust="spacing" textLength="394" x="931.5" y="133.8857">subject : varchar(200)       ' IdP subject (normalizado, trim)</text><text fill="#000000" font-family="sans-serif" font-size="14" lengthAdjust="spacing" textLength="136" x="931.5" y="150.1826">email : varchar(320)</text><text fill="#000000" font-family="sans-serif" font-size="14" lengthAdjust="spacing" textLength="161" x="931.5" y="166.4795">email_verified : boolean</text><text fill="#000000" font-family="sans-serif" font-size="14" lengthAdjust="spacing" textLength="223" x="931.5" y="182.7764">phone : varchar(20)          ' E.164</text><text fill="#000000" font-family="sans-serif" font-size="14" lengthAdjust="spacing" textLength="170" x="931.5" y="199.0732">phone_verified : boolean</text><text fill="#000000" font-family="sans-serif" font-size="14" lengthAdjust="spacing" textLength="162" x="931.5" y="215.3701">pin_hash : varchar(255)</text><text fill="#000000" font-family="sans-serif" font-size="14" lengthAdjust="spacing" textLength="205" x="931.5" y="231.667">pin_updated_at : timestamptz</text><text fill="#000000" font-family="sans-serif" font-size="14" lengthAdjust="spacing" textLength="388" x="931.5" y="247.9639">status : varchar(16)         ' ACTIVE|SUSPENDED|DELETED</text><text fill="#000000" font-family="sans-serif" font-size="14" lengthAdjust="spacing" textLength="249" x="931.5" y="264.2607">version : int                ' optimistic lock</text><text fill="#000000" font-family="sans-serif" font-size="14" lengthAdjust="spacing" textLength="172" x="931.5" y="280.5576">created_at : timestamptz</text><text fill="#000000" font-family="sans-serif" font-size="14" lengthAdjust="spacing" textLength="177" x="931.5" y="296.8545">updated_at : timestamptz</text></g><!--class Outbox--><g id="elem_Outbox"><rect codeLine="26" fill="#F1F1F1" height="178.375" id="Outbox" rx="2.5" ry="2.5" style="stroke:#181818;stroke-width:0.5;" width="427" x="7" y="381.1469"/><ellipse cx="191.25" cy="397.1469" fill="#ADD1B2" rx="11" ry="11" style="stroke:#181818;stroke-width:1.0;"/><path d="M195.3594,403.1469 L187.6406,403.1469 L187.6406,390.7563 L195.3594,390.7563 L195.3594,392.9125 L190.0938,392.9125 L190.0938,395.5844 L194.8594,395.5844 L194.8594,397.7406 L190.0938,397.7406 L190.0938,400.9906 L195.3594,400.9906 L195.3594,403.1469 Z " fill="#000000"/><text fill="#000000" font-family="sans-serif" font-size="14" lengthAdjust="spacing" textLength="50" x="211.75" y="401.9936">Outbox</text><line style="stroke:#181818;stroke-width:0.5;" x1="8" x2="433" y1="413.1469" y2="413.1469"/><ellipse cx="18" cy="426.7953" fill="#000000" rx="3" ry="3" style="stroke:#000000;stroke-width:1.0;"/><text fill="#000000" font-family="sans-serif" font-size="14" lengthAdjust="spacing" textLength="105" x="27" y="430.142">event_id : UUID</text><line style="stroke:#181818;stroke-width:1.0;" x1="8" x2="433" y1="437.4438" y2="437.4438"/><text fill="#000000" font-family="sans-serif" font-size="14" lengthAdjust="spacing" textLength="323" x="13" y="454.4389">aggregate_type : varchar(50)    ' e.g., "Account"</text><text fill="#000000" font-family="sans-serif" font-size="14" lengthAdjust="spacing" textLength="415" x="13" y="470.7357">aggregate_id : UUID             ' opcional -&gt; Account.account_id</text><text fill="#000000" font-family="sans-serif" font-size="14" lengthAdjust="spacing" textLength="176" x="13" y="487.0326">event_type : varchar(100)</text><text fill="#000000" font-family="sans-serif" font-size="14" lengthAdjust="spacing" textLength="104" x="13" y="503.3295">payload : jsonb</text><text fill="#000000" font-family="sans-serif" font-size="14" lengthAdjust="spacing" textLength="181" x="13" y="519.6264">occurred_at : timestamptz</text><text fill="#000000" font-family="sans-serif" font-size="14" lengthAdjust="spacing" textLength="146" x="13" y="535.9232">dispatched : boolean</text><text fill="#000000" font-family="sans-serif" font-size="14" lengthAdjust="spacing" textLength="196" x="13" y="552.2201">dispatched_at : timestamptz</text></g><!--class Audit--><g id="elem_Audit"><rect codeLine="38" fill="#F1F1F1" height="129.4844" id="Audit" rx="2.5" ry="2.5" style="stroke:#181818;stroke-width:0.5;" width="431" x="913" y="405.5969"/><ellipse cx="1106.75" cy="421.5969" fill="#ADD1B2" rx="11" ry="11" style="stroke:#181818;stroke-width:1.0;"/><path d="M1110.8594,427.5969 L1103.1406,427.5969 L1103.1406,415.2063 L1110.8594,415.2063 L1110.8594,417.3625 L1105.5938,417.3625 L1105.5938,420.0344 L1110.3594,420.0344 L1110.3594,422.1906 L1105.5938,422.1906 L1105.5938,425.4406 L1110.8594,425.4406 L1110.8594,427.5969 Z " fill="#000000"/><text fill="#000000" font-family="sans-serif" font-size="14" lengthAdjust="spacing" textLength="35" x="1127.25" y="426.4436">Audit</text><line style="stroke:#181818;stroke-width:0.5;" x1="914" x2="1343" y1="437.5969" y2="437.5969"/><ellipse cx="924" cy="451.2453" fill="#000000" rx="3" ry="3" style="stroke:#000000;stroke-width:1.0;"/><text fill="#000000" font-family="sans-serif" font-size="14" lengthAdjust="spacing" textLength="123" x="933" y="454.592">audit_id : bigserial</text><line style="stroke:#181818;stroke-width:1.0;" x1="914" x2="1343" y1="461.8938" y2="461.8938"/><text fill="#000000" font-family="sans-serif" font-size="14" lengthAdjust="spacing" textLength="408" x="919" y="478.8889">account_id : UUID               ' opcional -&gt; Account.account_id</text><text fill="#000000" font-family="sans-serif" font-size="14" lengthAdjust="spacing" textLength="419" x="919" y="495.1857">action : varchar(100)           ' p.ej., PinSet, AccountSuspended</text><text fill="#000000" font-family="sans-serif" font-size="14" lengthAdjust="spacing" textLength="315" x="919" y="511.4826">data_hash : varchar(128)        ' resumen sin PII</text><text fill="#000000" font-family="sans-serif" font-size="14" lengthAdjust="spacing" textLength="172" x="919" y="527.7795">created_at : timestamptz</text></g><!--class IdempotencyKey--><g id="elem_IdempotencyKey"><rect codeLine="47" fill="#F1F1F1" height="178.375" id="IdempotencyKey" rx="2.5" ry="2.5" style="stroke:#181818;stroke-width:0.5;" width="505" x="1777" y="381.1469"/><ellipse cx="1967.75" cy="397.1469" fill="#ADD1B2" rx="11" ry="11" style="stroke:#181818;stroke-width:1.0;"/><path d="M1971.8594,403.1469 L1964.1406,403.1469 L1964.1406,390.7563 L1971.8594,390.7563 L1971.8594,392.9125 L1966.5938,392.9125 L1966.5938,395.5844 L1971.3594,395.5844 L1971.3594,397.7406 L1966.5938,397.7406 L1966.5938,400.9906 L1971.8594,400.9906 L1971.8594,403.1469 Z " fill="#000000"/><text fill="#000000" font-family="sans-serif" font-size="14" lengthAdjust="spacing" textLength="115" x="1988.25" y="401.9936">IdempotencyKey</text><line style="stroke:#181818;stroke-width:0.5;" x1="1778" x2="2281" y1="413.1469" y2="413.1469"/><ellipse cx="1788" cy="426.7953" fill="#000000" rx="3" ry="3" style="stroke:#000000;stroke-width:1.0;"/><text fill="#000000" font-family="sans-serif" font-size="14" lengthAdjust="spacing" textLength="221" x="1797" y="430.142">idempotency_key : varchar(120)</text><line style="stroke:#181818;stroke-width:1.0;" x1="1778" x2="2281" y1="437.4438" y2="437.4438"/><text fill="#000000" font-family="sans-serif" font-size="14" lengthAdjust="spacing" textLength="408" x="1783" y="454.4389">account_id : UUID               ' opcional -&gt; Account.account_id</text><text fill="#000000" font-family="sans-serif" font-size="14" lengthAdjust="spacing" textLength="493" x="1783" y="470.7357">request_hash : varchar(128)     ' hash de request (m&#233;todo+path+body)</text><text fill="#000000" font-family="sans-serif" font-size="14" lengthAdjust="spacing" textLength="138" x="1783" y="487.0326">response_code : int</text><text fill="#000000" font-family="sans-serif" font-size="14" lengthAdjust="spacing" textLength="259" x="1783" y="503.3295">response_body_trunc : varchar(2000)</text><text fill="#000000" font-family="sans-serif" font-size="14" lengthAdjust="spacing" textLength="172" x="1783" y="519.6264">created_at : timestamptz</text><text fill="#000000" font-family="sans-serif" font-size="14" lengthAdjust="spacing" textLength="189" x="1783" y="535.9232">ttl_expires_at : timestamptz</text><text fill="#000000" font-family="sans-serif" font-size="14" lengthAdjust="spacing" textLength="115" x="1783" y="552.2201">locked : boolean</text></g><!--class DispatcherCheckpoint--><g id="elem_DispatcherCheckpoint"><rect codeLine="59" fill="#F1F1F1" height="129.4844" id="DispatcherCheckpoint" rx="2.5" ry="2.5" style="stroke:#181818;stroke-width:0.5;" width="411" x="1753" y="109.4769"/><ellipse cx="1877.25" cy="125.4769" fill="#ADD1B2" rx="11" ry="11" style="stroke:#181818;stroke-width:1.0;"/><path d="M1881.3594,131.4769 L1873.6406,131.4769 L1873.6406,119.0863 L1881.3594,119.0863 L1881.3594,121.2425 L1876.0938,121.2425 L1876.0938,123.9144 L1880.8594,123.9144 L1880.8594,126.0706 L1876.0938,126.0706 L1876.0938,129.3206 L1881.3594,129.3206 L1881.3594,131.4769 Z " fill="#000000"/><text fill="#000000" font-family="sans-serif" font-size="14" lengthAdjust="spacing" textLength="154" x="1897.75" y="130.3236">DispatcherCheckpoint</text><line style="stroke:#181818;stroke-width:0.5;" x1="1754" x2="2163" y1="141.4769" y2="141.4769"/><ellipse cx="1764" cy="155.1253" fill="#000000" rx="3" ry="3" style="stroke:#000000;stroke-width:1.0;"/><text fill="#000000" font-family="sans-serif" font-size="14" lengthAdjust="spacing" textLength="166" x="1773" y="158.472">checkpoint_id : bigserial</text><line style="stroke:#181818;stroke-width:1.0;" x1="1754" x2="2163" y1="165.7738" y2="165.7738"/><text fill="#000000" font-family="sans-serif" font-size="14" lengthAdjust="spacing" textLength="399" x="1759" y="182.7689">worker_name : varchar(100)      ' nombre l&#243;gico del worker</text><text fill="#000000" font-family="sans-serif" font-size="14" lengthAdjust="spacing" textLength="136" x="1759" y="199.0657">last_event_id : UUID</text><text fill="#000000" font-family="sans-serif" font-size="14" lengthAdjust="spacing" textLength="189" x="1759" y="215.3626">last_event_at : timestamptz</text><text fill="#000000" font-family="sans-serif" font-size="14" lengthAdjust="spacing" textLength="177" x="1759" y="231.6595">updated_at : timestamptz</text></g><g id="elem_GMN10"><path d="M1367,131.3869 L1367,170.2269 L1331.86,174.2269 L1367,178.2269 L1367,217.0509 A0,0 0 0 0 1367,217.0509 L1718,217.0509 A0,0 0 0 0 1718,217.0509 L1718,141.3869 L1708,131.3869 L1367,131.3869 A0,0 0 0 0 1367,131.3869 " fill="#FEFFDD" style="stroke:#181818;stroke-width:0.5;"/><path d="M1708,131.3869 L1708,141.3869 L1718,141.3869 L1708,131.3869 " fill="#FEFFDD" style="stroke:#181818;stroke-width:0.5;"/><text fill="#000000" font-family="sans-serif" font-size="13" lengthAdjust="spacing" textLength="157" x="1373" y="148.4538">UNIQUE (issuer, subject)</text><text fill="#000000" font-family="sans-serif" font-size="13" lengthAdjust="spacing" textLength="330" x="1373" y="163.5866">CHECK status IN ('ACTIVE','SUSPENDED','DELETED')</text><text fill="#000000" font-family="sans-serif" font-size="13" lengthAdjust="spacing" textLength="48" x="1373" y="178.7194">&#205;ndices:</text><text fill="#000000" font-family="sans-serif" font-size="13" lengthAdjust="spacing" textLength="233" x="1381" y="193.8522">- IX_account_issuer_subject (unique)</text><text fill="#000000" font-family="sans-serif" font-size="13" lengthAdjust="spacing" textLength="125" x="1381" y="208.985">- IX_account_status</text></g><g id="elem_GMN13"><path d="M469.5,435.0769 L469.5,466.3369 L434.17,470.3369 L469.5,474.3369 L469.5,505.6081 A0,0 0 0 0 469.5,505.6081 L877.5,505.6081 A0,0 0 0 0 877.5,505.6081 L877.5,445.0769 L867.5,435.0769 L469.5,435.0769 A0,0 0 0 0 469.5,435.0769 " fill="#FEFFDD" style="stroke:#181818;stroke-width:0.5;"/><path d="M867.5,435.0769 L867.5,445.0769 L877.5,445.0769 L867.5,435.0769 " fill="#FEFFDD" style="stroke:#181818;stroke-width:0.5;"/><text fill="#000000" font-family="sans-serif" font-size="13" lengthAdjust="spacing" textLength="48" x="475.5" y="452.1438">&#205;ndices:</text><text fill="#000000" font-family="sans-serif" font-size="13" lengthAdjust="spacing" textLength="379" x="483.5" y="467.2766">- IX_outbox_dispatched_occurred (dispatched, occurred_at)</text><text fill="#000000" font-family="sans-serif" font-size="13" lengthAdjust="spacing" textLength="351" x="483.5" y="482.4094">- IX_outbox_aggregate (aggregate_type, aggregate_id)</text><text fill="#000000" font-family="sans-serif" font-size="13" lengthAdjust="spacing" textLength="319" x="475.5" y="497.5422">FK aggregate_id -&gt; Account.account_id (opcional)</text></g><g id="elem_GMN16"><path d="M1379.5,442.6369 L1379.5,466.3369 L1344.08,470.3369 L1379.5,474.3369 L1379.5,498.0353 A0,0 0 0 0 1379.5,498.0353 L1741.5,498.0353 A0,0 0 0 0 1741.5,498.0353 L1741.5,452.6369 L1731.5,442.6369 L1379.5,442.6369 A0,0 0 0 0 1379.5,442.6369 " fill="#FEFFDD" style="stroke:#181818;stroke-width:0.5;"/><path d="M1731.5,442.6369 L1731.5,452.6369 L1741.5,452.6369 L1731.5,442.6369 " fill="#FEFFDD" style="stroke:#181818;stroke-width:0.5;"/><text fill="#000000" font-family="sans-serif" font-size="13" lengthAdjust="spacing" textLength="220" x="1385.5" y="459.7038">Append-only (sin UPDATE/DELETE)</text><text fill="#000000" font-family="sans-serif" font-size="13" lengthAdjust="spacing" textLength="41" x="1385.5" y="474.8366">&#205;ndice:</text><text fill="#000000" font-family="sans-serif" font-size="13" lengthAdjust="spacing" textLength="333" x="1393.5" y="489.9694">- IX_audit_account_created (account_id, created_at)</text></g><g id="elem_GMN19"><path d="M2317.5,435.0769 L2317.5,466.3369 L2282.32,470.3369 L2317.5,474.3369 L2317.5,505.6081 A0,0 0 0 0 2317.5,505.6081 L2679.5,505.6081 A0,0 0 0 0 2679.5,505.6081 L2679.5,445.0769 L2669.5,435.0769 L2317.5,435.0769 A0,0 0 0 0 2317.5,435.0769 " fill="#FEFFDD" style="stroke:#181818;stroke-width:0.5;"/><path d="M2669.5,435.0769 L2669.5,445.0769 L2679.5,445.0769 L2669.5,435.0769 " fill="#FEFFDD" style="stroke:#181818;stroke-width:0.5;"/><text fill="#000000" font-family="sans-serif" font-size="13" lengthAdjust="spacing" textLength="177" x="2323.5" y="452.1438">UNIQUE (idempotency_key)</text><text fill="#000000" font-family="sans-serif" font-size="13" lengthAdjust="spacing" textLength="235" x="2323.5" y="467.2766">TTL por ttl_expires_at (job/scheduler)</text><text fill="#000000" font-family="sans-serif" font-size="13" lengthAdjust="spacing" textLength="48" x="2323.5" y="482.4094">&#205;ndices:</text><text fill="#000000" font-family="sans-serif" font-size="13" lengthAdjust="spacing" textLength="333" x="2331.5" y="497.5422">- IX_idem_account_created (account_id, created_at)</text></g><g id="elem_GMN22"><path d="M2199.5,138.9569 L2199.5,170.2269 L2164.29,174.2269 L2199.5,178.2269 L2199.5,209.4881 A0,0 0 0 0 2199.5,209.4881 L2545.5,209.4881 A0,0 0 0 0 2545.5,209.4881 L2545.5,148.9569 L2535.5,138.9569 L2199.5,138.9569 A0,0 0 0 0 2199.5,138.9569 " fill="#FEFFDD" style="stroke:#181818;stroke-width:0.5;"/><path d="M2535.5,138.9569 L2535.5,148.9569 L2545.5,148.9569 L2535.5,138.9569 " fill="#FEFFDD" style="stroke:#181818;stroke-width:0.5;"/><text fill="#000000" font-family="sans-serif" font-size="13" lengthAdjust="spacing" textLength="282" x="2205.5" y="156.0238">1 fila por worker_name (o las que necesites)</text><text fill="#000000" font-family="sans-serif" font-size="13" lengthAdjust="spacing" textLength="325" x="2205.5" y="171.1566">No FK; referencia l&#243;gica a Outbox por last_event_id</text><text fill="#000000" font-family="sans-serif" font-size="13" lengthAdjust="spacing" textLength="41" x="2205.5" y="186.2894">&#205;ndice:</text><text fill="#000000" font-family="sans-serif" font-size="13" lengthAdjust="spacing" textLength="299" x="2213.5" y="201.4222">- UX_checkpoint_worker (worker_name unique)</text></g><!--link Account to Outbox--><g id="link_Account_Outbox"><path codeLine="69" d="M917.4602,235.3174 C782.4102,274.7174 609.27,327.1169 451.5,381.1469 C445.81,383.0969 457.0403,379.1245 451.2403,381.1645 " fill="none" id="Account-Outbox" style="stroke:#181818;stroke-width:1.0;"/><line style="stroke:#181818;stroke-width:1.0;" x1="920.1798" x2="922.4204" y1="230.3572" y2="238.0371"/><line style="stroke:#181818;stroke-width:1.0;" x1="917.2999" x2="919.5404" y1="231.1974" y2="238.8773"/><line style="stroke:#181818;stroke-width:1.0;" x1="917.4602" x2="925.14" y1="235.3174" y2="233.0769"/><line style="stroke:#181818;stroke-width:1.0;" x1="441.8068" x2="436.2508" y1="384.4825" y2="392.797"/><line style="stroke:#181818;stroke-width:1.0;" x1="441.8068" x2="432.2692" y1="384.4825" y2="381.4768"/><line style="stroke:#181818;stroke-width:1.0;" x1="441.8068" x2="434.26" y1="384.4825" y2="387.1369"/><ellipse cx="447.4669" cy="382.4917" fill="none" rx="4" ry="4" style="stroke:#181818;stroke-width:1.0;"/><text fill="#000000" font-family="sans-serif" font-size="13" lengthAdjust="spacing" textLength="52" x="581.02" y="347.2138">produce</text></g><!--link Account to Audit--><g id="link_Account_Audit"><path codeLine="70" d="M1128.5,312.2269 C1128.5,347.2669 1128.5,357.6869 1128.5,387.3869 " fill="none" id="Account-Audit" style="stroke:#181818;stroke-width:1.0;"/><line style="stroke:#181818;stroke-width:1.0;" x1="1124.5" x2="1132.5" y1="308.2269" y2="308.2269"/><line style="stroke:#181818;stroke-width:1.0;" x1="1124.5" x2="1132.5" y1="311.2269" y2="311.2269"/><line style="stroke:#181818;stroke-width:1.0;" x1="1128.5" x2="1128.5" y1="312.2269" y2="304.2269"/><line style="stroke:#181818;stroke-width:1.0;" x1="1128.5" x2="1134.5" y1="397.3869" y2="405.3869"/><line style="stroke:#181818;stroke-width:1.0;" x1="1128.5" x2="1122.5" y1="397.3869" y2="405.3869"/><line style="stroke:#181818;stroke-width:1.0;" x1="1128.5" x2="1128.5" y1="397.3869" y2="405.3869"/><ellipse cx="1128.5" cy="391.3869" fill="none" rx="4" ry="4" style="stroke:#181818;stroke-width:1.0;"/><text fill="#000000" font-family="sans-serif" font-size="13" lengthAdjust="spacing" textLength="49" x="1129.5" y="347.2138">registra</text></g><!--link Account to IdempotencyKey--><g id="link_Account_IdempotencyKey"><path codeLine="71" d="M1339.3535,300.2965 C1345.2035,302.7365 1343.67,301.9769 1349.5,304.1469 C1523.23,368.9269 1579.89,335.1569 1759.5,381.1469 C1765.23,382.6169 1753.6392,379.4663 1759.4692,381.0363 " fill="none" id="Account-IdempotencyKey" style="stroke:#181818;stroke-width:1.0;"/><line style="stroke:#181818;stroke-width:1.0;" x1="1334.1219" x2="1337.2016" y1="302.4484" y2="295.0649"/><line style="stroke:#181818;stroke-width:1.0;" x1="1336.8908" x2="1339.9704" y1="303.6033" y2="296.2198"/><line style="stroke:#181818;stroke-width:1.0;" x1="1339.3535" x2="1331.97" y1="300.2965" y2="297.2169"/><line style="stroke:#181818;stroke-width:1.0;" x1="1769.1252" x2="1778.4102" y1="383.6366" y2="379.9233"/><line style="stroke:#181818;stroke-width:1.0;" x1="1769.1252" x2="1775.2898" y1="383.6366" y2="391.5105"/><line style="stroke:#181818;stroke-width:1.0;" x1="1769.1252" x2="1776.85" y1="383.6366" y2="385.7169"/><ellipse cx="1763.3316" cy="382.0764" fill="none" rx="4" ry="4" style="stroke:#181818;stroke-width:1.0;"/><text fill="#000000" font-family="sans-serif" font-size="13" lengthAdjust="spacing" textLength="23" x="1567.32" y="347.2138">usa</text></g><!--SRC=[hLRDRjj64BxpAGOvb6GZ-QznKAXe0LLIKC6fwzPIaHknMewbjSbTPdVfM8a3z0Lwwqlqq5CVmM_I9-aiVoIIbjm6BK_KS7Vccszclf4FN__xn_FXsz40fiFluQzVVeCnisp13C9OiALcAGHSfLc2Li4QZ72l8LsPiKN2p026dAjSsXxyaDk5kkl1C8y5_Pp6c6RAekJhCrpto9l9cEKhrACLyfjC2Md9pQVWzAom2HBO0cj_1z9HYHJXCxYia5ACVhzVmNMl7ahoiww1mmSFu7DWvQz8n320-Nmw9YkT1H36vAZ9UCiqNp4T71yTXL0zFgLvKHy9fD8fIyHx5giU9EeTwf0Sc7nnZTmsF9niFPGEwYDj3rQBr3d0b8caSVsBawEDERf5BQu4EjGBfH9aaZvbAoMn5N23s8MS71o_V54Vs-D1o6Z5pAhfvFGqhBxaMSminX5pMLcHeh4ipUnxbwrbDZTDkbw6ZT33qMpwy-J-SdvvCJaVJyRtuydhoMpYs2OSHYX9LwapeFFue38A98mLdAZbDtI1Qzo7OY_0ZrvT_h9Tg-hZBUwgFLikDIx9KsJNMPFGqv9G7_1WUT23PrKlFMlTsRXxb0cdF5a2_M_g9ZpOjf-hR86c4zArdQEVhHF5dEThe-I2B8hpNElTFCJrqBMhkpK_nL0noFLukFSoeuLO6cePbcnOwexEZjhzGyQCsxBqkuQiS94Tu3KnVI7a9PAwL5ukSvEXZD7ve8gpRiyUdtpPc5MD9azHaeX9k9XEdsgXBGjj7Qle45jZT4FMPiIYJFyNCHhVvWHgRru-55zYh4z2a3xyRbMidbE5LyyNAbw7XH-JAMamuYh6SiIQLdSiiZgNl2rJHIvFp9crIOHtcI17kpwxGMsrtfRMNUkW8fTl37iQxftIDwWZoLBSsJ8-I9KkD4BoyETIS4Nq9DKb1ueHduy7lc7-H44f5ynFc31NJ3GGb5lIXCMwgVVC_Ns_hpxKkZE0JAiuvzZzNauTVISL8RdJh7kWqv03o0shGPmhIqkEAiofh7INE3I73t_8M727o-8TRV5gXnVW93a2BPOh2-ggRa5lVZxzSJw1e5nilNe_XTxekydehDRuwJa4VYdeVi_VI3gzLwBkXzx3hsNiWQiTJDz4c-ukN4URpPTBGVqRTe-LeQXfOd1GlGxWaip7KLHXZnewLwia15jZhwcTOUVkHiSXQA-1NalYG-_LMLlpTuuo1FMeXtkJAIhl3JEdQ7qbaxLh90dpY_5mDZaiETqmkYMqKEOwKZMhX7aJkjSOuFt1srsrxO2sq8NURFOQCgMxanzSgyMXSQJcYVlRywWYpj5_HxdpJ-GnN8c45QYQoX0eDzD0NGKI2OgmD97UkO9NPr_HS5sXfgm4gqI20Qj7qpbgYKIRy_cRgA5GPKG8cf7hNgwp-1i0]--></g></svg>