<svg xmlns="http://www.w3.org/2000/svg" xmlns:xlink="http://www.w3.org/1999/xlink" contentStyleType="text/css" height="771px" preserveAspectRatio="none" style="width:2769px;height:771px;background:#FFFFFF;" version="1.1" viewBox="0 0 2769 771" width="2769px" zoomAndPan="magnify"><defs/><g><text fill="#000000" font-family="sans-serif" font-size="14" font-weight="bold" lengthAdjust="spacing" textLength="406" x="1174.75" y="22.9951">Waybills &#8212; Database ER Diagram (schema: waybills)</text><!--class waybill--><g id="elem_waybill"><rect codeLine="9" fill="#F1F1F1" height="368.2344" id="waybill" rx="2.5" ry="2.5" style="stroke:#181818;stroke-width:0.5;" width="1019" x="1083.5" y="44.2969"/><text fill="#000000" font-family="sans-serif" font-size="14" lengthAdjust="spacing" textLength="44" x="1571" y="62.292">waybill</text><line style="stroke:#181818;stroke-width:0.5;" x1="1084.5" x2="2101.5" y1="70.5938" y2="70.5938"/><ellipse cx="1094.5" cy="84.2422" fill="#000000" rx="3" ry="3" style="stroke:#000000;stroke-width:1.0;"/><text fill="#000000" font-family="sans-serif" font-size="14" lengthAdjust="spacing" textLength="110" x="1103.5" y="87.5889">waybill_id : UUID</text><line style="stroke:#181818;stroke-width:1.0;" x1="1084.5" x2="2101.5" y1="94.8906" y2="94.8906"/><text fill="#000000" font-family="sans-serif" font-size="14" lengthAdjust="spacing" textLength="342" x="1089.5" y="111.8857">type : VARCHAR(16)             ' REMITTER | CARRIER</text><text fill="#000000" font-family="sans-serif" font-size="14" lengthAdjust="spacing" textLength="95" x="1089.5" y="128.1826">deal_id : UUID</text><text fill="#000000" font-family="sans-serif" font-size="14" lengthAdjust="spacing" textLength="120" x="1089.5" y="144.4795">request_id : UUID</text><text fill="#000000" font-family="sans-serif" font-size="14" lengthAdjust="spacing" textLength="146" x="1089.5" y="160.7764">request_version : INT</text><text fill="#000000" font-family="sans-serif" font-size="14" lengthAdjust="spacing" textLength="251" x="1089.5" y="177.0732">remitter_ref : JSONB           ' snapshot</text><text fill="#000000" font-family="sans-serif" font-size="14" lengthAdjust="spacing" textLength="244" x="1089.5" y="193.3701">carrier_ref : JSONB            ' snapshot</text><text fill="#000000" font-family="sans-serif" font-size="14" lengthAdjust="spacing" textLength="266" x="1089.5" y="209.667">consignee_ref : JSONB          ' snapshot</text><text fill="#000000" font-family="sans-serif" font-size="14" lengthAdjust="spacing" textLength="378" x="1089.5" y="225.9639">route_snapshot : JSONB         ' origin, stops, destination</text><text fill="#000000" font-family="sans-serif" font-size="14" lengthAdjust="spacing" textLength="142" x="1089.5" y="242.2607">segment_key : TEXT</text><text fill="#000000" font-family="sans-serif" font-size="14" lengthAdjust="spacing" textLength="278" x="1089.5" y="258.5576">departure_window_start : TIMESTAMPTZ</text><text fill="#000000" font-family="sans-serif" font-size="14" lengthAdjust="spacing" textLength="282" x="1089.5" y="274.8545">departure_window_end   : TIMESTAMPTZ</text><text fill="#000000" font-family="sans-serif" font-size="14" lengthAdjust="spacing" textLength="249" x="1089.5" y="291.1514">vehicle_ref  : JSONB           ' snapshot</text><text fill="#000000" font-family="sans-serif" font-size="14" lengthAdjust="spacing" textLength="239" x="1089.5" y="307.4482">trailer_ref  : JSONB           ' snapshot</text><text fill="#000000" font-family="sans-serif" font-size="14" lengthAdjust="spacing" textLength="1007" x="1089.5" y="323.7451">status : VARCHAR(32)           ' DRAFT | READY_TO_FILE | FILED_ACCEPTED | FILED_REJECTED | VOIDED | SUPERSEDED | PENDING_RECONCILIATION</text><text fill="#000000" font-family="sans-serif" font-size="14" lengthAdjust="spacing" textLength="202" x="1089.5" y="340.042">filing_provider : VARCHAR(64)</text><text fill="#000000" font-family="sans-serif" font-size="14" lengthAdjust="spacing" textLength="363" x="1089.5" y="356.3389">external_id : TEXT             ' id en proveedor (opcional)</text><text fill="#000000" font-family="sans-serif" font-size="14" lengthAdjust="spacing" textLength="120" x="1089.5" y="372.6357">public_link : TEXT</text><text fill="#000000" font-family="sans-serif" font-size="14" lengthAdjust="spacing" textLength="186" x="1089.5" y="388.9326">created_at : TIMESTAMPTZ</text><text fill="#000000" font-family="sans-serif" font-size="14" lengthAdjust="spacing" textLength="191" x="1089.5" y="405.2295">updated_at : TIMESTAMPTZ</text></g><!--class waybill_item--><g id="elem_waybill_item"><rect codeLine="33" fill="#F1F1F1" height="172.6719" id="waybill_item" rx="2.5" ry="2.5" style="stroke:#181818;stroke-width:0.5;" width="272" x="987" y="497.6869"/><text fill="#000000" font-family="sans-serif" font-size="14" lengthAdjust="spacing" textLength="148" x="1049" y="515.682">waybill_declared_item</text><line style="stroke:#181818;stroke-width:0.5;" x1="988" x2="1258" y1="523.9838" y2="523.9838"/><ellipse cx="998" cy="537.6322" fill="#000000" rx="3" ry="3" style="stroke:#000000;stroke-width:1.0;"/><text fill="#000000" font-family="sans-serif" font-size="14" lengthAdjust="spacing" textLength="246" x="1007" y="540.9789">waybill_id : UUID            ' FK &#8594; waybill</text><ellipse cx="998" cy="553.9291" fill="#000000" rx="3" ry="3" style="stroke:#000000;stroke-width:1.0;"/><text fill="#000000" font-family="sans-serif" font-size="14" lengthAdjust="spacing" textLength="106" x="1007" y="557.2757">item_seq   : INT</text><line style="stroke:#181818;stroke-width:1.0;" x1="988" x2="1258" y1="564.5775" y2="564.5775"/><text fill="#000000" font-family="sans-serif" font-size="14" lengthAdjust="spacing" textLength="88" x="993" y="581.5726">name : TEXT</text><text fill="#000000" font-family="sans-serif" font-size="14" lengthAdjust="spacing" textLength="143" x="993" y="597.8695">qty  : NUMERIC(12,3)</text><text fill="#000000" font-family="sans-serif" font-size="14" lengthAdjust="spacing" textLength="188" x="993" y="614.1664">weight_kg : NUMERIC(12,3)</text><text fill="#000000" font-family="sans-serif" font-size="14" lengthAdjust="spacing" textLength="237" x="993" y="630.4632">dims_cm   : JSONB              ' {l,w,h}</text><text fill="#000000" font-family="sans-serif" font-size="14" lengthAdjust="spacing" textLength="120" x="993" y="646.7601">packaging : TEXT</text><text fill="#000000" font-family="sans-serif" font-size="14" lengthAdjust="spacing" textLength="105" x="993" y="663.057">notes     : TEXT</text></g><!--class waybill_part--><g id="elem_waybill_part"><rect codeLine="45" fill="#F1F1F1" height="123.7813" id="waybill_part" rx="2.5" ry="2.5" style="stroke:#181818;stroke-width:0.5;" width="442" x="7" y="522.1269"/><text fill="#000000" font-family="sans-serif" font-size="14" lengthAdjust="spacing" textLength="107" x="174.5" y="540.122">waybill_partition</text><line style="stroke:#181818;stroke-width:0.5;" x1="8" x2="448" y1="548.4238" y2="548.4238"/><ellipse cx="18" cy="562.0722" fill="#000000" rx="3" ry="3" style="stroke:#000000;stroke-width:1.0;"/><text fill="#000000" font-family="sans-serif" font-size="14" lengthAdjust="spacing" textLength="246" x="27" y="565.4189">waybill_id   : UUID          ' FK &#8594; waybill</text><ellipse cx="18" cy="578.3691" fill="#000000" rx="3" ry="3" style="stroke:#000000;stroke-width:1.0;"/><text fill="#000000" font-family="sans-serif" font-size="14" lengthAdjust="spacing" textLength="110" x="27" y="581.7157">partition_id : INT</text><line style="stroke:#181818;stroke-width:1.0;" x1="8" x2="448" y1="589.0175" y2="589.0175"/><text fill="#000000" font-family="sans-serif" font-size="14" lengthAdjust="spacing" textLength="199" x="13" y="606.0126">unit_key_tractor_plate : TEXT</text><text fill="#000000" font-family="sans-serif" font-size="14" lengthAdjust="spacing" textLength="311" x="13" y="622.3095">unit_key_trailer_plate : TEXT  ' null si no aplica</text><text fill="#000000" font-family="sans-serif" font-size="14" lengthAdjust="spacing" textLength="430" x="13" y="638.6064">destinations : JSONB           ' set de destinos (ids normalizados)</text></g><!--class waybill_evt--><g id="elem_waybill_evt"><rect codeLine="54" fill="#F1F1F1" height="123.7813" id="waybill_evt" rx="2.5" ry="2.5" style="stroke:#181818;stroke-width:0.5;" width="272" x="1294" y="522.1269"/><text fill="#000000" font-family="sans-serif" font-size="14" lengthAdjust="spacing" textLength="90" x="1385" y="540.122">waybill_event</text><line style="stroke:#181818;stroke-width:0.5;" x1="1295" x2="1565" y1="548.4238" y2="548.4238"/><ellipse cx="1305" cy="562.0722" fill="#000000" rx="3" ry="3" style="stroke:#000000;stroke-width:1.0;"/><text fill="#000000" font-family="sans-serif" font-size="14" lengthAdjust="spacing" textLength="246" x="1314" y="565.4189">waybill_id : UUID            ' FK &#8594; waybill</text><ellipse cx="1305" cy="578.3691" fill="#000000" rx="3" ry="3" style="stroke:#000000;stroke-width:1.0;"/><text fill="#000000" font-family="sans-serif" font-size="14" lengthAdjust="spacing" textLength="113" x="1314" y="581.7157">seq        : BIGINT</text><line style="stroke:#181818;stroke-width:1.0;" x1="1295" x2="1565" y1="589.0175" y2="589.0175"/><text fill="#000000" font-family="sans-serif" font-size="14" lengthAdjust="spacing" textLength="138" x="1300" y="606.0126">at    : TIMESTAMPTZ</text><text fill="#000000" font-family="sans-serif" font-size="14" lengthAdjust="spacing" textLength="142" x="1300" y="622.3095">type  : VARCHAR(64)</text><text fill="#000000" font-family="sans-serif" font-size="14" lengthAdjust="spacing" textLength="101" x="1300" y="638.6064">details : JSONB</text></g><!--class waybill_repr--><g id="elem_waybill_repr"><rect codeLine="63" fill="#F1F1F1" height="123.7813" id="waybill_repr" rx="2.5" ry="2.5" style="stroke:#181818;stroke-width:0.5;" width="309" x="1601.5" y="522.1269"/><text fill="#000000" font-family="sans-serif" font-size="14" lengthAdjust="spacing" textLength="153" x="1679.5" y="540.122">waybill_representation</text><line style="stroke:#181818;stroke-width:0.5;" x1="1602.5" x2="1909.5" y1="548.4238" y2="548.4238"/><ellipse cx="1612.5" cy="562.0722" fill="#000000" rx="3" ry="3" style="stroke:#000000;stroke-width:1.0;"/><text fill="#000000" font-family="sans-serif" font-size="14" lengthAdjust="spacing" textLength="283" x="1621.5" y="565.4189">waybill_id : UUID            ' FK &#8594; waybill (1:1)</text><line style="stroke:#181818;stroke-width:1.0;" x1="1602.5" x2="1909.5" y1="572.7206" y2="572.7206"/><text fill="#000000" font-family="sans-serif" font-size="14" lengthAdjust="spacing" textLength="100" x="1607.5" y="589.7157">xml_url  : TEXT</text><text fill="#000000" font-family="sans-serif" font-size="14" lengthAdjust="spacing" textLength="99" x="1607.5" y="606.0126">pdf_url  : TEXT</text><text fill="#000000" font-family="sans-serif" font-size="14" lengthAdjust="spacing" textLength="113" x="1607.5" y="622.3095">xml_hash : TEXT</text><text fill="#000000" font-family="sans-serif" font-size="14" lengthAdjust="spacing" textLength="178" x="1607.5" y="638.6064">stored_at : TIMESTAMPTZ</text></g><!--class outbox--><g id="elem_outbox"><rect codeLine="73" fill="#F1F1F1" height="188.9688" id="outbox" rx="2.5" ry="2.5" style="stroke:#181818;stroke-width:0.5;" width="387" x="1945.5" y="489.5369"/><text fill="#000000" font-family="sans-serif" font-size="14" lengthAdjust="spacing" textLength="94" x="2092" y="507.532">outbox_event</text><line style="stroke:#181818;stroke-width:0.5;" x1="1946.5" x2="2331.5" y1="515.8338" y2="515.8338"/><ellipse cx="1956.5" cy="529.4822" fill="#000000" rx="3" ry="3" style="stroke:#000000;stroke-width:1.0;"/><text fill="#000000" font-family="sans-serif" font-size="14" lengthAdjust="spacing" textLength="105" x="1965.5" y="532.8289">event_id : UUID</text><line style="stroke:#181818;stroke-width:1.0;" x1="1946.5" x2="2331.5" y1="540.1306" y2="540.1306"/><text fill="#000000" font-family="sans-serif" font-size="14" lengthAdjust="spacing" textLength="260" x="1951.5" y="557.1257">aggregate_type : TEXT          ' "Waybill"</text><text fill="#000000" font-family="sans-serif" font-size="14" lengthAdjust="spacing" textLength="255" x="1951.5" y="573.4226">aggregate_id   : UUID          ' waybill_id</text><text fill="#000000" font-family="sans-serif" font-size="14" lengthAdjust="spacing" textLength="330" x="1951.5" y="589.7195">type    : TEXT                 ' WaybillFiled / Voided / ...</text><text fill="#000000" font-family="sans-serif" font-size="14" lengthAdjust="spacing" textLength="109" x="1951.5" y="606.0164">payload : JSONB</text><text fill="#000000" font-family="sans-serif" font-size="14" lengthAdjust="spacing" textLength="375" x="1951.5" y="622.3132">status  : VARCHAR(16)          ' PENDING | SENT | FAILED</text><text fill="#000000" font-family="sans-serif" font-size="14" lengthAdjust="spacing" textLength="97" x="1951.5" y="638.6101">attempts : INT</text><text fill="#000000" font-family="sans-serif" font-size="14" lengthAdjust="spacing" textLength="224" x="1951.5" y="654.907">next_attempt_at : TIMESTAMPTZ</text><text fill="#000000" font-family="sans-serif" font-size="14" lengthAdjust="spacing" textLength="186" x="1951.5" y="671.2039">created_at : TIMESTAMPTZ</text></g><!--class inbox--><g id="elem_inbox"><rect codeLine="86" fill="#F1F1F1" height="172.6719" id="inbox" rx="2.5" ry="2.5" style="stroke:#181818;stroke-width:0.5;" width="393" x="2369.5" y="497.6869"/><text fill="#000000" font-family="sans-serif" font-size="14" lengthAdjust="spacing" textLength="108" x="2512" y="515.682">inbox_message</text><line style="stroke:#181818;stroke-width:0.5;" x1="2370.5" x2="2761.5" y1="523.9838" y2="523.9838"/><ellipse cx="2380.5" cy="537.6322" fill="#000000" rx="3" ry="3" style="stroke:#000000;stroke-width:1.0;"/><text fill="#000000" font-family="sans-serif" font-size="14" lengthAdjust="spacing" textLength="286" x="2389.5" y="540.9789">source      : TEXT           ' proveedor / topic</text><ellipse cx="2380.5" cy="553.9291" fill="#000000" rx="3" ry="3" style="stroke:#000000;stroke-width:1.0;"/><text fill="#000000" font-family="sans-serif" font-size="14" lengthAdjust="spacing" textLength="307" x="2389.5" y="557.2757">external_id : TEXT           ' eventId del externo</text><line style="stroke:#181818;stroke-width:1.0;" x1="2370.5" x2="2761.5" y1="564.5775" y2="564.5775"/><text fill="#000000" font-family="sans-serif" font-size="14" lengthAdjust="spacing" textLength="196" x="2375.5" y="581.5726">received_at  : TIMESTAMPTZ</text><text fill="#000000" font-family="sans-serif" font-size="14" lengthAdjust="spacing" textLength="129" x="2375.5" y="597.8695">payload      : JSONB</text><text fill="#000000" font-family="sans-serif" font-size="14" lengthAdjust="spacing" textLength="166" x="2375.5" y="614.1664">processed    : BOOLEAN</text><text fill="#000000" font-family="sans-serif" font-size="14" lengthAdjust="spacing" textLength="207" x="2375.5" y="630.4632">processed_at : TIMESTAMPTZ</text><text fill="#000000" font-family="sans-serif" font-size="14" lengthAdjust="spacing" textLength="110" x="2375.5" y="646.7601">error        : TEXT</text><text fill="#000000" font-family="sans-serif" font-size="14" lengthAdjust="spacing" textLength="381" x="2375.5" y="663.057">related_waybill_id : UUID      ' nullable, tras reconciliaci&#243;n</text></g><g id="elem_GMN15"><path d="M2137.5,193.1569 L2137.5,224.4169 L2103,228.4169 L2137.5,232.4169 L2137.5,263.6881 A0,0 0 0 0 2137.5,263.6881 L2584.5,263.6881 A0,0 0 0 0 2584.5,263.6881 L2584.5,203.1569 L2574.5,193.1569 L2137.5,193.1569 A0,0 0 0 0 2137.5,193.1569 " fill="#FEFFDD" style="stroke:#181818;stroke-width:0.5;"/><path d="M2574.5,193.1569 L2574.5,203.1569 L2584.5,203.1569 L2574.5,193.1569 " fill="#FEFFDD" style="stroke:#181818;stroke-width:0.5;"/><text fill="#000000" font-family="sans-serif" font-size="13" lengthAdjust="spacing" textLength="414" x="2143.5" y="210.2238">- Snapshots (parties, route, vehicle) are immutable after FILED_*</text><text fill="#000000" font-family="sans-serif" font-size="13" lengthAdjust="spacing" textLength="370" x="2143.5" y="225.3566">- Active-overlap policy: no two active waybills for the same</text><text fill="#000000" font-family="sans-serif" font-size="13" lengthAdjust="spacing" textLength="357" x="2151.5" y="240.4894">(type, deal_id, unit_key?, segment_key) within [dep, arr]</text><text fill="#000000" font-family="sans-serif" font-size="13" lengthAdjust="spacing" textLength="426" x="2143.5" y="255.6222">- PENDING_RECONCILIATION stubs may be created from webhooks</text></g><g id="elem_GMN18"><path d="M484,563.8869 L484,580.0169 L449.07,584.0169 L484,588.0169 L484,604.1525 A0,0 0 0 0 484,604.1525 L952,604.1525 A0,0 0 0 0 952,604.1525 L952,573.8869 L942,563.8869 L484,563.8869 A0,0 0 0 0 484,563.8869 " fill="#FEFFDD" style="stroke:#181818;stroke-width:0.5;"/><path d="M942,563.8869 L942,573.8869 L952,573.8869 L942,563.8869 " fill="#FEFFDD" style="stroke:#181818;stroke-width:0.5;"/><text fill="#000000" font-family="sans-serif" font-size="13" lengthAdjust="spacing" textLength="441" x="490" y="580.9538">- Each partition maps 1:1 to a physical unit (tractor + optional trailer)</text><text fill="#000000" font-family="sans-serif" font-size="13" lengthAdjust="spacing" textLength="447" x="490" y="596.0866">- Destinations across partitions must be disjoint and cover all required</text></g><g id="elem_GMN21"><path d="M1920,739.5069 L1920,764.6397 A0,0 0 0 0 1920,764.6397 L2356,764.6397 A0,0 0 0 0 2356,764.6397 L2356,749.5069 L2346,739.5069 L2142.07,739.5069 L2138.44,678.7169 L2134.07,739.5069 L1920,739.5069 A0,0 0 0 0 1920,739.5069 " fill="#FEFFDD" style="stroke:#181818;stroke-width:0.5;"/><path d="M2346,739.5069 L2346,749.5069 L2356,749.5069 L2346,739.5069 " fill="#FEFFDD" style="stroke:#181818;stroke-width:0.5;"/><text fill="#000000" font-family="sans-serif" font-size="13" lengthAdjust="spacing" textLength="415" x="1926" y="756.5738">Transactional Outbox: published after commit with retries/backoff</text></g><g id="elem_GMN24"><path d="M2391.5,739.5069 L2391.5,764.6397 A0,0 0 0 0 2391.5,764.6397 L2744.5,764.6397 A0,0 0 0 0 2744.5,764.6397 L2744.5,749.5069 L2734.5,739.5069 L2571.86,739.5069 L2567.03,670.4769 L2563.86,739.5069 L2391.5,739.5069 A0,0 0 0 0 2391.5,739.5069 " fill="#FEFFDD" style="stroke:#181818;stroke-width:0.5;"/><path d="M2734.5,739.5069 L2734.5,749.5069 L2744.5,749.5069 L2734.5,739.5069 " fill="#FEFFDD" style="stroke:#181818;stroke-width:0.5;"/><text fill="#000000" font-family="sans-serif" font-size="13" lengthAdjust="spacing" textLength="332" x="2397.5" y="756.5738">Inbox (idempotent): dedupe by (source, external_id)</text></g><!--link waybill to waybill_item--><g id="link_waybill_waybill_item"><path codeLine="99" d="M1342.6577,417.7571 C1303.5477,447.1871 1285.5323,460.7333 1251.4223,486.4033 " fill="none" id="waybill-waybill_item" style="stroke:#181818;stroke-width:1.0;"/><line style="stroke:#181818;stroke-width:1.0;" x1="1343.4487" x2="1348.2589" y1="412.1558" y2="418.5481"/><line style="stroke:#181818;stroke-width:1.0;" x1="1341.0516" x2="1345.8618" y1="413.9596" y2="420.352"/><line style="stroke:#181818;stroke-width:1.0;" x1="1342.6577" x2="1349.05" y1="417.7571" y2="412.9469"/><line style="stroke:#181818;stroke-width:1.0;" x1="1243.4321" x2="1240.6479" y1="492.4164" y2="502.021"/><line style="stroke:#181818;stroke-width:1.0;" x1="1243.4321" x2="1233.4321" y1="492.4164" y2="492.4328"/><line style="stroke:#181818;stroke-width:1.0;" x1="1243.4321" x2="1237.04" y1="492.4164" y2="497.2269"/><ellipse cx="1248.2262" cy="488.8085" fill="none" rx="4" ry="4" style="stroke:#181818;stroke-width:1.0;"/><text fill="#000000" font-family="sans-serif" font-size="13" lengthAdjust="spacing" textLength="54" x="1303.08" y="455.6038">declares</text></g><!--link waybill to waybill_part--><g id="link_waybill_waybill_part"><path codeLine="100" d="M1075.3274,332.1182 C880.5274,375.0382 665.23,427.7869 466,489.5369 C435.89,498.8669 420.9916,503.7848 390.8816,515.3048 " fill="none" id="waybill-waybill_part" style="stroke:#181818;stroke-width:1.0;"/><line style="stroke:#181818;stroke-width:1.0;" x1="1078.373" x2="1080.0944" y1="327.3512" y2="335.1639"/><line style="stroke:#181818;stroke-width:1.0;" x1="1075.4433" x2="1077.1646" y1="327.9967" y2="335.8094"/><line style="stroke:#181818;stroke-width:1.0;" x1="1075.3274" x2="1083.14" y1="332.1182" y2="330.3969"/><line style="stroke:#181818;stroke-width:1.0;" x1="381.5418" x2="376.214" y1="518.8782" y2="527.3407"/><line style="stroke:#181818;stroke-width:1.0;" x1="381.5418" x2="371.926" y1="518.8782" y2="516.133"/><line style="stroke:#181818;stroke-width:1.0;" x1="381.5418" x2="374.07" y1="518.8782" y2="521.7369"/><ellipse cx="387.1457" cy="516.7342" fill="none" rx="4" ry="4" style="stroke:#181818;stroke-width:1.0;"/><text fill="#000000" font-family="sans-serif" font-size="13" lengthAdjust="spacing" textLength="60" x="617.87" y="455.6038">partitions</text></g><!--link waybill to waybill_evt--><g id="link_waybill_waybill_evt"><path codeLine="101" d="M1505.0508,420.2121 C1486.9108,459.5621 1479.8515,474.8583 1465.7315,505.5083 " fill="none" id="waybill-waybill_evt" style="stroke:#181818;stroke-width:1.0;"/><line style="stroke:#181818;stroke-width:1.0;" x1="1503.0928" x2="1510.358" y1="414.9049" y2="418.2541"/><line style="stroke:#181818;stroke-width:1.0;" x1="1501.8369" x2="1509.1021" y1="417.6293" y2="420.9785"/><line style="stroke:#181818;stroke-width:1.0;" x1="1505.0508" x2="1508.4" y1="420.2121" y2="412.9469"/><line style="stroke:#181818;stroke-width:1.0;" x1="1461.5474" x2="1463.6495" y1="514.5908" y2="524.3674"/><line style="stroke:#181818;stroke-width:1.0;" x1="1461.5474" x2="1452.7505" y1="514.5908" y2="519.3464"/><line style="stroke:#181818;stroke-width:1.0;" x1="1461.5474" x2="1458.2" y1="514.5908" y2="521.8569"/><ellipse cx="1464.0579" cy="509.1413" fill="none" rx="4" ry="4" style="stroke:#181818;stroke-width:1.0;"/><text fill="#000000" font-family="sans-serif" font-size="13" lengthAdjust="spacing" textLength="51" x="1493.11" y="455.6038">timeline</text></g><!--link waybill to waybill_repr--><g id="link_waybill_waybill_repr"><path codeLine="102" d="M1680.9492,420.2121 C1699.0892,459.5621 1710.3326,483.9408 1724.4526,514.5908 " fill="none" id="waybill-waybill_repr" style="stroke:#181818;stroke-width:1.0;"/><line style="stroke:#181818;stroke-width:1.0;" x1="1675.642" x2="1682.9072" y1="418.2541" y2="414.9049"/><line style="stroke:#181818;stroke-width:1.0;" x1="1676.8979" x2="1684.1631" y1="420.9785" y2="417.6293"/><line style="stroke:#181818;stroke-width:1.0;" x1="1680.9492" x2="1677.6" y1="420.2121" y2="412.9469"/><line style="stroke:#181818;stroke-width:1.0;" x1="1729.7593" x2="1722.4933" y1="516.5502" y2="519.8975"/><line style="stroke:#181818;stroke-width:1.0;" x1="1728.5041" x2="1721.238" y1="513.8254" y2="517.1728"/><line style="stroke:#181818;stroke-width:1.0;" x1="1724.4526" x2="1727.8" y1="514.5908" y2="521.8569"/><text fill="#000000" font-family="sans-serif" font-size="13" lengthAdjust="spacing" textLength="94" x="1699.62" y="455.6038">representation</text></g><!--link waybill to outbox--><g id="link_waybill_outbox"><path codeLine="104" d="M1883.1139,417.2971 C1923.8739,443.7071 1942.5107,455.7737 1979.0207,479.4137 " fill="none" id="waybill-outbox" style="stroke:#181818;stroke-width:1.0;"/><line style="stroke:#181818;stroke-width:1.0;" x1="1877.5818" x2="1881.932" y1="418.4789" y2="411.765"/><line style="stroke:#181818;stroke-width:1.0;" x1="1880.0995" x2="1884.4497" y1="420.1102" y2="413.3963"/><line style="stroke:#181818;stroke-width:1.0;" x1="1883.1139" x2="1876.4" y1="417.2971" y2="412.9469"/><line style="stroke:#181818;stroke-width:1.0;" x1="1987.4148" x2="1997.3911" y1="484.8488" y2="484.1605"/><line style="stroke:#181818;stroke-width:1.0;" x1="1987.4148" x2="1990.8689" y1="484.8488" y2="494.2333"/><line style="stroke:#181818;stroke-width:1.0;" x1="1987.4148" x2="1994.13" y1="484.8488" y2="489.1969"/><ellipse cx="1982.3783" cy="481.5878" fill="none" rx="4" ry="4" style="stroke:#181818;stroke-width:1.0;"/><text fill="#000000" font-family="sans-serif" font-size="13" lengthAdjust="spacing" textLength="83" x="1947.81" y="455.6038">emits events</text></g><!--link waybill to inbox--><g id="link_waybill_inbox"><path codeLine="105" d="M2116.9056,411.483 C2122.7056,413.463 2114.27,410.5769 2120,412.5369 C2222.03,447.3369 2249.33,450.9769 2350,489.5369 C2356.49,492.0169 2346.3283,487.9497 2352.9583,490.5797 " fill="none" id="waybill-inbox" style="stroke:#181818;stroke-width:1.0;"/><line style="stroke:#181818;stroke-width:1.0;" x1="2113.1201" x2="2102.71" y1="410.1907" y2="406.6369"/><ellipse cx="2113.1201" cy="410.1907" fill="none" rx="4" ry="4" style="stroke:#181818;stroke-width:1.0;"/><line style="stroke:#181818;stroke-width:1.0;" x1="2105.2032" x2="2107.7878" y1="411.7147" y2="404.1437"/><line style="stroke:#181818;stroke-width:1.0;" x1="2362.2537" x2="2371.9024" y1="494.267" y2="491.6397"/><line style="stroke:#181818;stroke-width:1.0;" x1="2362.2537" x2="2367.4776" y1="494.267" y2="502.7941"/><line style="stroke:#181818;stroke-width:1.0;" x1="2362.2537" x2="2369.69" y1="494.267" y2="497.2169"/><ellipse cx="2356.6765" cy="492.0547" fill="none" rx="4" ry="4" style="stroke:#181818;stroke-width:1.0;"/><text fill="#000000" font-family="sans-serif" font-size="13" lengthAdjust="spacing" textLength="129" x="2263.89" y="455.6038">reconciles (optional)</text></g><!--SRC=[dLTTRjj647xNAGPwaPJACPmKUJ1G58f49qnjoP3bz0y5iI9NqjOabzbTMb7Z07tg0OhUf4VeJNAIVhia9SgY4Y1wiCNPuSxCDz_yo0WJS_gHRUOYZZLz-lCV6Z73vanpygOq4cofM49T7QvumivfNMhsMgsLY3WbtAnaf8i7RRZYqcmoNWf2eS8O3wrMXxuhFZGRlBpqRgXxntb6mf0MIHRpNdNUugaHPaFjqbARcAwiqeSMqPFgAH0HdTFjhJ-2zEG4VwnbYDuEfiFNWsdtx4MFwfyEJRqhVpP3N0yq74odlZV5Mn5d-tSf_YxdsZJAxhdIGgOuyCSp9q-4GTY1uWi8tznCnY_tJEgKPNeb3NH3ffGuglf8LwPQB5FEcxNtT9NC3GygmO5oXwGIIv7saH-PwJu2raQap20ElAtvCW7cmHtVuDMPzzFCOP8nPNB5WxL88xaEjC6pFVUll9lPuEfwzakJ6ayZM7oiTizN0ZnmeNm99AEOY4kGlgGBfqokQnb__gotfpkQ3YvcIFRK6un-3cQJuCA_zF1i_us2mN3eNS-yqLOmzTvumqBmTkAFt9URssjlUkCL3zVUUEIFNq5nE1aF_Kj_CFCdOtYo4B58bq6cv3ruhseklVYsXtF-7Xn9AvvPa1yn4tAUadsVyqWgwieiH7vORD_EydaimW0cxdOf2XLdXaS1EqnBdaNDHnzRZyihY7WOCmLbONXIBpOdE5Pn-yvV_42V_lgxqd9ls9S3pTyvDXIbuaeqPGdVnV0Edk1fV7lbJVrXz-nP_xcDTyt5SWL6BXlE8f7e84oeYHpEcGznVzrVVRImiV2EWVZBdS5K6gwTOYbgGCHIMjZYs4F3IW_He0Cy6j7ONbaWMCCZJuKhlG2y3urKGHOZTJk7w-UkBkhdrbgQeozgWSY8PM09SsMvBN3TN4FSGAdKavgw8jAuGIKi5d-mIAAzDm33xo7P0uNVcwzcI46ECXSl_LSrKC3RXYxYklj1PKNS09Xjc4r-AvufhY5b1rcrHryJ0NNFpizwbR_lapZ8LKoxj6NHuf74wgoONkqawCRgI95sQ9ARkNnFf-IdzZy8nEnCM0W6yo9YqJPAwJHhoIa4PLHEV3WfsNAf-19C2igPkT-IEjGkLuBsdl8Hnk-WswQ9cjfSeLtUV04wHmZmhKJ7j5-UFdtgYdOJInPjyxdjyiS6UwVgohPPUsFRxYy6jfqx8g4DPKPlQov58mvAQLFdFDfKQxGIDYD1mhLcI-uGTv8IS2rp5NAYHWWwjGv_IfZ68YoozBdnq2cIw4VWUbogoYgHYeTSt1SU7qHJOLawKm4A7q9upwEozYQJIsymhXyqGSELWjTKZypPZnrWHwgdw4zi7lE-dUpQ-YlJ41HceVZltxGWUxKQJhrBDr1lNllNs1139TSTJGifpMuzh0gm-3myd9p83_iZwvpQvL3JxS-hPyLEqzwsvo-zOFkTVS68X6CQyoRrXuVzxWBrHmserMoah5lesvrI5ra_z4WwvO9onUK5efXhM1fCiJIqwx2E9pExSAlSwfWLSWjii6ui99WQuIfCZkmqavWUWkiTr7POahAZcEHYsxjFwARSm63G8SUnKxeTj5zjUZrdGIH9RcpkYIr0sdB9Ue8R1g41QKzG2Yfc6JdJctCxmymQSyoTRdzgW00ARkFd1NO7KAvhEqo_Mjlxsn7vVR- -o_PeBSmAiVsA9RKFVzHlCDoymA75v7DD2TlGd5SzW1PA9bX5vYifxtJBRhOMa5OpB8vBCE2nSBKRzxWoquHHWLedHjbgep6XO-SouYX6Fdr3LTwgxRU7cqRr8SvG2rhlBeQpkJRMsqZetwL8aLCu65f4YO4izlUAm7XvxFTS6eEmu7X1jzPCiLHRn9tzOkoS5nkdNW658dMXJC191ockDlWPeq_dMA_aOd7SWkDegnXWs33GSt6UcjuvSXVbc1Bp3NvOkdxPhxV0tlRA_m40]--></g></svg>